<?xml version="1.0" encoding="UTF-8"?>
<!DOCTYPE svg PUBLIC "-//W3C//DTD SVG 1.1//EN"
    "http://www.w3.org/Graphics/SVG/1.1/DTD/svg11.dtd"><svg font-size="1" viewBox="0.0 0.0 1920.0 1080.0" stroke="rgb(0,0,0)" xmlns="http://www.w3.org/2000/svg" width="1920.0000" stroke-opacity="1" height="1080.0000" version="1.1" xmlns:xlink="http://www.w3.org/1999/xlink"><defs></defs><g stroke-linejoin="miter" fill-opacity="0.0" fill="rgb(0,0,0)" stroke="rgb(160,194,222)" stroke-linecap="butt" stroke-miterlimit="10.0" stroke-opacity="1.0" stroke-width="1.0581795688823334"><path d="M 960.0000,540.0000 v -432.0000 "/></g><g stroke-linejoin="miter" fill-opacity="0.0" fill="rgb(0,0,0)" stroke="rgb(160,194,222)" stroke-linecap="butt" stroke-miterlimit="10.0" stroke-opacity="1.0" stroke-width="1.0581795688823334"><path d="M 960.0000,972.0000 v -432.0000 "/></g><g stroke-linejoin="miter" fill-opacity="1.0" fill="rgb(237,237,244)" stroke="rgb(160,194,222)" stroke-linecap="butt" stroke-miterlimit="10.0" stroke-opacity="1.0" stroke-width="1.0581795688823334"><path d="M 1478.4000,972.0000 h 0.0000 c 0.0000,-59.6468 -48.3532,-108.0000 -108.0000 -108.0000h -820.8000 c -59.6468,-0.0000 -108.0000,48.3532 -108.0000 108.0000h 0.0000 c -0.0000,59.6468 48.3532,108.0000 108.0000 108.0000h 820.8000 c 59.6468,0.0000 108.0000,-48.3532 108.0000 -108.0000Z"/></g><g stroke-linejoin="miter" fill-opacity="1.0" font-size="54.0px" fill="rgb(6,71,128)" stroke="rgb(0,0,0)" font-weight="300" font-family="helvetica" stroke-linecap="butt" stroke-miterlimit="10.0" stroke-opacity="1.0" stroke-width="4.232718275529334"><text transform="matrix(1.0000,0.0000,0.0000,1.0000,960.0000,972.0000)" stroke="none" dominant-baseline="middle" text-anchor="middle">end</text></g><g stroke-linejoin="miter" fill-opacity="1.0" fill="rgb(237,237,244)" stroke="rgb(160,194,222)" stroke-linecap="butt" stroke-miterlimit="10.0" stroke-opacity="1.0" stroke-width="1.0581795688823334"><path d="M 1478.4000,648.0000 l -0.0000,-216.0000 h -1036.8000 l -0.0000,216.0000 Z"/></g><g stroke-linejoin="miter" fill-opacity="1.0" font-size="54.0px" fill="rgb(6,71,128)" stroke="rgb(0,0,0)" font-weight="300" font-family="helvetica" stroke-linecap="butt" stroke-miterlimit="10.0" stroke-opacity="1.0" stroke-width="4.232718275529334"><text transform="matrix(1.0000,0.0000,0.0000,1.0000,960.0000,540.0000)" stroke="none" dominant-baseline="middle" text-anchor="middle">action 1</text></g><g stroke-linejoin="miter" fill-opacity="1.0" fill="rgb(237,237,244)" stroke="rgb(160,194,222)" stroke-linecap="butt" stroke-miterlimit="10.0" stroke-opacity="1.0" stroke-width="1.0581795688823334"><path d="M 1478.4000,108.0000 h 0.0000 c 0.0000,-59.6468 -48.3532,-108.0000 -108.0000 -108.0000h -820.8000 c -59.6468,-0.0000 -108.0000,48.3532 -108.0000 108.0000h 0.0000 c -0.0000,59.6468 48.3532,108.0000 108.0000 108.0000h 820.8000 c 59.6468,0.0000 108.0000,-48.3532 108.0000 -108.0000Z"/></g><g stroke-linejoin="miter" fill-opacity="1.0" font-size="54.0px" fill="rgb(6,71,128)" stroke="rgb(0,0,0)" font-weight="300" font-family="helvetica" stroke-linecap="butt" stroke-miterlimit="10.0" stroke-opacity="1.0" stroke-width="4.232718275529334"><text transform="matrix(1.0000,0.0000,0.0000,1.0000,960.0000,108.0000)" stroke="none" dominant-baseline="middle" text-anchor="middle">start</text></g></svg>