<?xml version="1.0" encoding="UTF-8"?>
<!DOCTYPE svg PUBLIC "-//W3C//DTD SVG 1.1//EN"
    "http://www.w3.org/Graphics/SVG/1.1/DTD/svg11.dtd"><svg font-size="1" viewBox="0.0 0.0 500.0 500.0" stroke="rgb(0,0,0)" xmlns="http://www.w3.org/2000/svg" width="500.0000" stroke-opacity="1" height="500.0000" version="1.1" xmlns:xlink="http://www.w3.org/1999/xlink"><defs></defs><g stroke-linejoin="miter" fill-opacity="0.0" fill="rgb(0,0,0)" stroke="rgb(160,194,222)" stroke-linecap="butt" stroke-miterlimit="10.0" stroke-opacity="1.0" stroke-width="0.5"><path d="M 227.7778,138.8889 l 22.2222,-111.1111 "/></g><g stroke-linejoin="miter" fill-opacity="0.0" fill="rgb(0,0,0)" stroke="rgb(160,194,222)" stroke-linecap="butt" stroke-miterlimit="10.0" stroke-opacity="1.0" stroke-width="0.5"><path d="M 227.7778,250.0000 l 22.2222,-111.1111 "/></g><g stroke-linejoin="miter" fill-opacity="0.0" fill="rgb(0,0,0)" stroke="rgb(160,194,222)" stroke-linecap="butt" stroke-miterlimit="10.0" stroke-opacity="1.0" stroke-width="0.5"><path d="M 227.7778,361.1111 l 22.2222,-111.1111 "/></g><g stroke-linejoin="miter" fill-opacity="0.0" fill="rgb(0,0,0)" stroke="rgb(160,194,222)" stroke-linecap="butt" stroke-miterlimit="10.0" stroke-opacity="1.0" stroke-width="0.5"><path d="M 227.7778,472.2222 l 22.2222,-111.1111 "/></g><g stroke-linejoin="miter" fill-opacity="1.0" fill="rgb(237,237,244)" stroke="rgb(160,194,222)" stroke-linecap="butt" stroke-miterlimit="10.0" stroke-opacity="1.0" stroke-width="0.5"><path d="M 383.3333,472.2222 h 0.0000 c 0.0000,-15.3412 -12.4365,-27.7778 -27.7778 -27.7778h -211.1111 c -15.3412,-0.0000 -27.7778,12.4365 -27.7778 27.7778h 0.0000 c -0.0000,15.3412 12.4365,27.7778 27.7778 27.7778h 211.1111 c 15.3412,0.0000 27.7778,-12.4365 27.7778 -27.7778Z"/></g><g stroke-linejoin="miter" fill-opacity="1.0" font-size="13.88888888888889px" fill="rgb(6,71,128)" stroke="rgb(0,0,0)" font-weight="300" font-family="helvetica" stroke-linecap="butt" stroke-miterlimit="10.0" stroke-opacity="1.0" stroke-width="1.4605934866804435"><text transform="matrix(1.0000,0.0000,0.0000,1.0000,250.0000,472.2222)" stroke="none" dominant-baseline="middle" text-anchor="middle">end</text></g><g stroke-linejoin="miter" fill-opacity="1.0" fill="rgb(237,237,244)" stroke="rgb(160,194,222)" stroke-linecap="butt" stroke-miterlimit="10.0" stroke-opacity="1.0" stroke-width="0.5"><path d="M 383.3333,388.8889 l -0.0000,-55.5556 h -266.6667 l -0.0000,55.5556 Z"/></g><g stroke-linejoin="miter" fill-opacity="1.0" font-size="13.88888888888889px" fill="rgb(6,71,128)" stroke="rgb(0,0,0)" font-weight="300" font-family="helvetica" stroke-linecap="butt" stroke-miterlimit="10.0" stroke-opacity="1.0" stroke-width="1.4605934866804435"><text transform="matrix(1.0000,0.0000,0.0000,1.0000,250.0000,361.1111)" stroke="none" dominant-baseline="middle" text-anchor="middle">action 3</text></g><g stroke-linejoin="miter" fill-opacity="1.0" fill="rgb(237,237,244)" stroke="rgb(160,194,222)" stroke-linecap="butt" stroke-miterlimit="10.0" stroke-opacity="1.0" stroke-width="0.5"><path d="M 383.3333,277.7778 l -0.0000,-55.5556 h -266.6667 l -0.0000,55.5556 Z"/></g><g stroke-linejoin="miter" fill-opacity="1.0" font-size="13.88888888888889px" fill="rgb(6,71,128)" stroke="rgb(0,0,0)" font-weight="300" font-family="helvetica" stroke-linecap="butt" stroke-miterlimit="10.0" stroke-opacity="1.0" stroke-width="1.4605934866804435"><text transform="matrix(1.0000,0.0000,0.0000,1.0000,250.0000,250.0000)" stroke="none" dominant-baseline="middle" text-anchor="middle">action 2</text></g><g stroke-linejoin="miter" fill-opacity="1.0" fill="rgb(237,237,244)" stroke="rgb(160,194,222)" stroke-linecap="butt" stroke-miterlimit="10.0" stroke-opacity="1.0" stroke-width="0.5"><path d="M 383.3333,166.6667 l -0.0000,-55.5556 h -266.6667 l -0.0000,55.5556 Z"/></g><g stroke-linejoin="miter" fill-opacity="1.0" font-size="13.88888888888889px" fill="rgb(6,71,128)" stroke="rgb(0,0,0)" font-weight="300" font-family="helvetica" stroke-linecap="butt" stroke-miterlimit="10.0" stroke-opacity="1.0" stroke-width="1.4605934866804435"><text transform="matrix(1.0000,0.0000,0.0000,1.0000,250.0000,138.8889)" stroke="none" dominant-baseline="middle" text-anchor="middle">action 1</text></g><g stroke-linejoin="miter" fill-opacity="1.0" fill="rgb(237,237,244)" stroke="rgb(160,194,222)" stroke-linecap="butt" stroke-miterlimit="10.0" stroke-opacity="1.0" stroke-width="0.5"><path d="M 383.3333,27.7778 h 0.0000 c 0.0000,-15.3412 -12.4365,-27.7778 -27.7778 -27.7778h -211.1111 c -15.3412,-0.0000 -27.7778,12.4365 -27.7778 27.7778h 0.0000 c -0.0000,15.3412 12.4365,27.7778 27.7778 27.7778h 211.1111 c 15.3412,0.0000 27.7778,-12.4365 27.7778 -27.7778Z"/></g><g stroke-linejoin="miter" fill-opacity="1.0" font-size="13.88888888888889px" fill="rgb(6,71,128)" stroke="rgb(0,0,0)" font-weight="300" font-family="helvetica" stroke-linecap="butt" stroke-miterlimit="10.0" stroke-opacity="1.0" stroke-width="1.4605934866804435"><text transform="matrix(1.0000,0.0000,0.0000,1.0000,250.0000,27.7778)" stroke="none" dominant-baseline="middle" text-anchor="middle">start</text></g></svg>