<?xml version="1.0" encoding="UTF-8"?>
<!DOCTYPE svg PUBLIC "-//W3C//DTD SVG 1.1//EN"
    "http://www.w3.org/Graphics/SVG/1.1/DTD/svg11.dtd"><svg font-size="1" viewBox="0.0 0.0 1920.0 1080.0" stroke="rgb(0,0,0)" xmlns="http://www.w3.org/2000/svg" width="1920.0000" stroke-opacity="1" height="1080.0000" version="1.1" xmlns:xlink="http://www.w3.org/1999/xlink"><defs></defs><g stroke-linejoin="miter" fill-opacity="0.0" fill="rgb(0,0,0)" stroke="rgb(160,194,222)" stroke-linecap="butt" stroke-miterlimit="10.0" stroke-opacity="1.0" stroke-width="1.36610394919274"><path d="M 960.0000,900.0000 v -720.0000 "/></g><g stroke-linejoin="miter" fill-opacity="1.0" fill="rgb(237,237,244)" stroke="rgb(160,194,222)" stroke-linecap="butt" stroke-miterlimit="10.0" stroke-opacity="1.0" stroke-width="1.36610394919274"><path d="M 1824.0000,900.0000 h 0.0000 c 0.0000,-99.4113 -80.5887,-180.0000 -180.0000 -180.0000h -1368.0000 c -99.4113,-0.0000 -180.0000,80.5887 -180.0000 180.0000h 0.0000 c -0.0000,99.4113 80.5887,180.0000 180.0000 180.0000h 1368.0000 c 99.4113,0.0000 180.0000,-80.5887 180.0000 -180.0000Z"/></g><g stroke-linejoin="miter" fill-opacity="1.0" font-size="90.0px" fill="rgb(6,71,128)" stroke="rgb(0,0,0)" font-weight="300" font-family="helvetica" stroke-linecap="butt" stroke-miterlimit="10.0" stroke-opacity="1.0" stroke-width="5.46441579677096"><text transform="matrix(1.0000,0.0000,0.0000,1.0000,960.0000,900.0000)" stroke="none" dominant-baseline="middle" text-anchor="middle">end</text></g><g stroke-linejoin="miter" fill-opacity="1.0" fill="rgb(237,237,244)" stroke="rgb(160,194,222)" stroke-linecap="butt" stroke-miterlimit="10.0" stroke-opacity="1.0" stroke-width="1.36610394919274"><path d="M 1824.0000,180.0000 h 0.0000 c 0.0000,-99.4113 -80.5887,-180.0000 -180.0000 -180.0000h -1368.0000 c -99.4113,-0.0000 -180.0000,80.5887 -180.0000 180.0000h 0.0000 c -0.0000,99.4113 80.5887,180.0000 180.0000 180.0000h 1368.0000 c 99.4113,0.0000 180.0000,-80.5887 180.0000 -180.0000Z"/></g><g stroke-linejoin="miter" fill-opacity="1.0" font-size="90.0px" fill="rgb(6,71,128)" stroke="rgb(0,0,0)" font-weight="300" font-family="helvetica" stroke-linecap="butt" stroke-miterlimit="10.0" stroke-opacity="1.0" stroke-width="5.46441579677096"><text transform="matrix(1.0000,0.0000,0.0000,1.0000,960.0000,180.0000)" stroke="none" dominant-baseline="middle" text-anchor="middle">start</text></g></svg>